HIERARCHY
ROOT Hip
{
  OFFSET 0.000000 0.000000 0.000000
  CHANNELS 6 Xposition Yposition Zposition Zrotation Xrotation Yrotation
  JOINT RHip
  {
    OFFSET 0.000000 0.000000 0.000000
    CHANNELS 3 Xposition Yposition Zposition
    End Site
    {
      OFFSET 0.000000 0.100000 0.000000
    }
  }
  JOINT RKnee
  {
    OFFSET 0.000000 0.000000 0.000000
    CHANNELS 3 Xposition Yposition Zposition
    End Site
    {
      OFFSET 0.000000 0.100000 0.000000
    }
  }
  JOINT RFoot
  {
    OFFSET 0.000000 0.000000 0.000000
    CHANNELS 3 Xposition Yposition Zposition
    End Site
    {
      OFFSET 0.000000 0.100000 0.000000
    }
  }
  JOINT LHip
  {
    OFFSET 0.000000 0.000000 0.000000
    CHANNELS 3 Xposition Yposition Zposition
    End Site
    {
      OFFSET 0.000000 0.100000 0.000000
    }
  }
  JOINT LKnee
  {
    OFFSET 0.000000 0.000000 0.000000
    CHANNELS 3 Xposition Yposition Zposition
    End Site
    {
      OFFSET 0.000000 0.100000 0.000000
    }
  }
  JOINT LFoot
  {
    OFFSET 0.000000 0.000000 0.000000
    CHANNELS 3 Xposition Yposition Zposition
    End Site
    {
      OFFSET 0.000000 0.100000 0.000000
    }
  }
  JOINT Spine
  {
    OFFSET 0.000000 0.000000 0.000000
    CHANNELS 3 Xposition Yposition Zposition
    End Site
    {
      OFFSET 0.000000 0.100000 0.000000
    }
  }
  JOINT Thorax
  {
    OFFSET 0.000000 0.000000 0.000000
    CHANNELS 3 Xposition Yposition Zposition
    End Site
    {
      OFFSET 0.000000 0.100000 0.000000
    }
  }
  JOINT Nose
  {
    OFFSET 0.000000 0.000000 0.000000
    CHANNELS 3 Xposition Yposition Zposition
    End Site
    {
      OFFSET 0.000000 0.100000 0.000000
    }
  }
  JOINT Head
  {
    OFFSET 0.000000 0.000000 0.000000
    CHANNELS 3 Xposition Yposition Zposition
    End Site
    {
      OFFSET 0.000000 0.100000 0.000000
    }
  }
  JOINT LShoulder
  {
    OFFSET 0.000000 0.000000 0.000000
    CHANNELS 3 Xposition Yposition Zposition
    End Site
    {
      OFFSET 0.000000 0.100000 0.000000
    }
  }
  JOINT LElbow
  {
    OFFSET 0.000000 0.000000 0.000000
    CHANNELS 3 Xposition Yposition Zposition
    End Site
    {
      OFFSET 0.000000 0.100000 0.000000
    }
  }
  JOINT LWrist
  {
    OFFSET 0.000000 0.000000 0.000000
    CHANNELS 3 Xposition Yposition Zposition
    End Site
    {
      OFFSET 0.000000 0.100000 0.000000
    }
  }
  JOINT RShoulder
  {
    OFFSET 0.000000 0.000000 0.000000
    CHANNELS 3 Xposition Yposition Zposition
    End Site
    {
      OFFSET 0.000000 0.100000 0.000000
    }
  }
  JOINT RElbow
  {
    OFFSET 0.000000 0.000000 0.000000
    CHANNELS 3 Xposition Yposition Zposition
    End Site
    {
      OFFSET 0.000000 0.100000 0.000000
    }
  }
  JOINT RWrist
  {
    OFFSET 0.000000 0.000000 0.000000
    CHANNELS 3 Xposition Yposition Zposition
    End Site
    {
      OFFSET 0.000000 0.100000 0.000000
    }
  }
}
MOTION
Frames: 11
Frame Time: 0.033333
0.000000 0.885383 -0.000008 0.000000 0.000000 0.000000 0.139180 0.007673 0.036645 0.256503 -0.234930 -0.458147 0.158850 -0.616199 -0.625468 -0.139184 -0.007616 -0.036610 -0.146501 -0.267960 -0.612379 -0.127225 -0.677768 -0.719993 0.012792 0.221202 -0.097606 0.035226 0.505199 -0.223921 0.152918 0.479833 -0.348658 0.088460 0.606327 -0.325466 -0.102634 0.472986 -0.305638 0.063799 0.476468 -0.551414 0.187444 0.615809 -0.417129 0.183287 0.491531 -0.139794 0.425454 0.493824 -0.189618 0.308974 0.610998 -0.421974
0.000000 0.885383 -0.000006 0.000000 0.000000 0.000000 0.138801 0.007943 0.037354 0.260710 -0.232178 -0.455048 0.160926 -0.616205 -0.615582 -0.138805 -0.007885 -0.037322 -0.146543 -0.266290 -0.614910 -0.129752 -0.679415 -0.717705 0.013232 0.220930 -0.095804 0.037238 0.505629 -0.220726 0.157680 0.479519 -0.344358 0.094744 0.606966 -0.323458 -0.101093 0.473330 -0.304014 0.065303 0.485649 -0.551098 0.180468 0.633370 -0.407464 0.184271 0.493132 -0.134563 0.425061 0.504569 -0.181981 0.302605 0.625870 -0.410176
0.000000 0.885383 -0.000003 0.000000 0.000000 0.000000 0.138317 0.008058 0.038121 0.264675 -0.228968 -0.452653 0.162809 -0.615481 -0.610152 -0.138320 -0.008000 -0.038095 -0.146439 -0.263494 -0.616658 -0.132128 -0.680446 -0.716715 0.013948 0.220080 -0.095121 0.039621 0.504734 -0.219977 0.162419 0.477099 -0.342222 0.100464 0.605412 -0.323565 -0.099193 0.472307 -0.304913 0.067993 0.491497 -0.554006 0.174312 0.647122 -0.404710 0.185906 0.492942 -0.131885 0.424880 0.513007 -0.179692 0.296772 0.637013 -0.403583
0.000000 0.885383 0.000000 0.000000 0.000000 0.000000 0.137765 0.008086 0.038845 0.268497 -0.225766 -0.451162 0.164757 -0.614229 -0.607269 -0.137767 -0.008028 -0.038825 -0.145946 -0.260283 -0.618118 -0.134089 -0.680766 -0.716250 0.014946 0.218484 -0.095787 0.042343 0.502316 -0.222098 0.167198 0.472613 -0.342988 0.105725 0.601704 -0.326594 -0.097215 0.469890 -0.308460 0.071047 0.493528 -0.559820 0.168740 0.656080 -0.408231 0.188217 0.490935 -0.132342 0.424438 0.518477 -0.182595 0.291132 0.644258 -0.402216
0.000000 0.885382 0.000004 0.000000 0.000000 0.000000 0.137266 0.008070 0.039415 0.272001 -0.222960 -0.450538 0.167048 -0.612334 -0.606677 -0.137268 -0.008012 -0.039402 -0.145109 -0.257189 -0.619860 -0.135364 -0.680292 -0.717544 0.016186 0.216426 -0.097173 0.045413 0.498727 -0.226007 0.171763 0.466575 -0.345856 0.110736 0.596413 -0.331865 -0.095254 0.466529 -0.313116 0.073596 0.492069 -0.566025 0.164142 0.659998 -0.414524 0.191379 0.487626 -0.135018 0.424241 0.520802 -0.188485 0.286250 0.648062 -0.405249
0.000000 0.885382 0.000006 0.000000 0.000000 0.000000 0.136871 0.008053 0.039900 0.275054 -0.220398 -0.450752 0.169998 -0.609565 -0.610369 -0.136873 -0.007996 -0.039892 -0.143822 -0.254331 -0.621951 -0.135693 -0.679117 -0.723278 0.017532 0.214187 -0.098635 0.048639 0.494335 -0.230561 0.175828 0.459471 -0.350008 0.115222 0.589999 -0.338640 -0.093471 0.462527 -0.317540 0.074616 0.487613 -0.571018 0.161106 0.658239 -0.423936 0.195273 0.483348 -0.138834 0.424681 0.519954 -0.195888 0.282615 0.647989 -0.412734
0.000000 0.885382 0.000008 0.000000 0.000000 0.000000 0.136593 0.008166 0.040389 0.277690 -0.217392 -0.451727 0.173681 -0.605758 -0.620182 -0.136595 -0.008109 -0.040384 -0.141991 -0.251561 -0.623890 -0.135133 -0.677442 -0.734812 0.018866 0.212039 -0.099596 0.051744 0.489660 -0.234425 0.179443 0.451837 -0.353977 0.119006 0.583009 -0.345391 -0.092182 0.457948 -0.320356 0.072823 0.480403 -0.573952 0.160525 0.650401 -0.438692 0.199537 0.478416 -0.142594 0.425818 0.516525 -0.204231 0.280888 0.643598 -0.424533
0.000000 0.885383 0.000008 0.000000 0.000000 0.000000 0.136466 0.008595 0.040797 0.279716 -0.213699 -0.453662 0.177775 -0.601365 -0.637542 -0.136469 -0.008537 -0.040794 -0.139655 -0.248557 -0.624782 -0.134032 -0.675519 -0.751206 0.020262 0.210157 -0.100060 0.054735 0.485081 -0.237240 0.182567 0.444089 -0.356813 0.122185 0.575938 -0.351053 -0.091392 0.452734 -0.321235 0.068022 0.470634 -0.575584 0.162658 0.636951 -0.459218 0.203900 0.473248 -0.146145 0.427936 0.511239 -0.214382 0.282441 0.634850 -0.440518
0.000000 0.885383 0.000008 0.000000 0.000000 0.000000 0.136432 0.009430 0.041080 0.281051 -0.210120 -0.457046 0.181961 -0.597807 -0.660900 -0.136435 -0.009372 -0.041075 -0.136778 -0.245100 -0.624310 -0.132517 -0.673845 -0.770790 0.021763 0.208409 -0.100625 0.057652 0.480342 -0.240477 0.185045 0.436129 -0.359815 0.124911 0.568633 -0.356901 -0.090771 0.446749 -0.321844 0.062212 0.458135 -0.579051 0.166268 0.617780 -0.483975 0.208191 0.468049 -0.150981 0.431520 0.503951 -0.228677 0.287924 0.621349 -0.462376
0.000000 0.885383 0.000007 0.000000 0.000000 0.000000 0.136214 0.010541 0.041339 0.282048 -0.207267 -0.462382 0.186500 -0.595705 -0.688089 -0.136218 -0.010484 -0.041332 -0.133726 -0.241153 -0.622983 -0.130248 -0.672540 -0.793381 0.023069 0.206627 -0.101782 0.060038 0.475225 -0.245772 0.186677 0.427601 -0.364785 0.127095 0.560787 -0.364697 -0.090106 0.439967 -0.324090 0.058668 0.442179 -0.584955 0.170325 0.592391 -0.509504 0.211925 0.462875 -0.158387 0.436255 0.493938 -0.247501 0.296372 0.602727 -0.490416
0.000000 0.885383 0.000005 0.000000 0.000000 0.000000 0.135583 0.011534 0.041512 0.282700 -0.205109 -0.469297 0.191697 -0.594180 -0.720403 -0.135586 -0.011477 -0.041500 -0.131413 -0.236971 -0.620803 -0.126920 -0.670829 -0.821522 0.023980 0.204756 -0.104265 0.061481 0.469788 -0.254273 0.187420 0.418173 -0.372723 0.128801 0.552196 -0.375231 -0.089356 0.432310 -0.329357 0.058756 0.421690 -0.592211 0.175138 0.561236 -0.535290 0.214555 0.457575 -0.168871 0.441243 0.480084 -0.268682 0.306327 0.578878 -0.520849
